Coordinates
version=1
nRows=19
nColumns=34
inDegrees=yes

Units are S.I. units (second, meters, Newtons, ...)
If the header above contains a line with 'inDegrees', this indicates whether rotational values are in degrees (yes) or radians (no).

endheader
time	pelvis_tilt	pelvis_list	pelvis_rotation	pelvis_tx	pelvis_ty	pelvis_tz	hip_flexion_r	hip_adduction_r	hip_rotation_r	knee_angle_r	ankle_angle_r	subtalar_angle_r	mtp_angle_r	hip_flexion_l	hip_adduction_l	hip_rotation_l	knee_angle_l	ankle_angle_l	subtalar_angle_l	mtp_angle_l	lumbar_extension	lumbar_bending	lumbar_rotation	arm_flex_r	arm_add_r	arm_rot_r	elbow_flex_r	pro_sup_r	arm_flex_l	arm_add_l	arm_rot_l	elbow_flex_l	pro_sup_l
     14.84166670	     -1.27192955	     -4.89133063	   -180.65748956	      0.15499381	      1.00576165	      0.13588911	     26.02172047	      0.64872640	     -1.29022712	     35.40560531	      3.17737624	     -8.19302793	      0.00000000	      9.82904647	      2.51649509	     -0.65256925	    109.87216490	    -15.60803544	    -22.69197238	      0.00000000	    -17.98203056	     -2.90390343	    -11.14543247	    -15.22712574	    -17.27972978	      1.37612531	    103.18866419	    101.37374800	     -7.07314870	    -28.36360928	     19.32208347	     93.16370269	     86.05196185
     14.85000000	     -0.82053480	     -4.43619637	   -180.72631341	      0.15794232	      0.99938582	      0.13517185	     26.22864178	      1.57063964	     -0.46716770	     38.04320877	      5.01495643	    -10.01411392	      0.00000000	     13.28596548	      1.52746917	     -0.29719527	    112.89416121	    -14.64209915	    -21.49695435	      0.00000000	    -17.83448600	     -2.40601214	    -10.24481128	    -12.02570805	    -18.26471371	      3.15147728	    101.22636378	    102.83321222	     -9.94159875	    -28.38456539	     16.81965916	     91.08831642	     92.87480920
     14.85833330	     -0.92973994	     -3.77430744	   -180.79347061	      0.16083645	      0.99446011	      0.13465233	     25.55888680	      2.63339433	      0.22453615	     40.28773729	      6.64396572	    -11.78401620	      0.00000000	     16.10375142	      0.40438293	      0.26256491	    115.34597911	    -13.04022509	    -19.88453564	      0.00000000	    -18.45414200	     -1.53459729	     -7.96703303	    -10.32019422	    -18.69485288	      2.93048745	    100.63044214	    102.89149032	    -10.67042108	    -28.44507343	     16.05780009	     87.58021412	     93.27057784
     14.86666670	     -0.77939450	     -3.15134359	   -180.92087795	      0.16373095	      0.98966248	      0.13447924	     25.09291112	      3.60957376	      0.88337032	     42.51661999	      8.19085306	    -13.32480773	      0.00000000	     19.26621068	     -0.55270959	      0.80699854	    117.36441873	    -11.29445510	    -18.17423458	      0.00000000	    -18.68554548	     -0.77345669	     -5.61917819	     -8.31928482	    -19.33738767	      3.08280980	     99.58297771	    102.98557748	    -11.21932793	    -28.56838219	     15.76875181	     84.40559360	     93.75632083
     14.87500000	     -0.65307243	     -2.61581263	   -181.11318696	      0.16659474	      0.98518321	      0.13433466	     24.42423210	      4.43481266	      1.49179069	     44.53165389	      9.77665720	    -14.55488527	      0.00000000	     22.47060806	     -1.28954095	      1.29490379	    118.89698987	     -9.30260721	    -16.72620888	      0.00000000	    -18.94951146	     -0.11400756	     -3.29548807	     -6.28157113	    -20.01591450	      3.30571398	     98.71198180	    103.04344763	    -11.79236841	    -28.76307817	     15.46389370	     81.67508941	     94.18932104
     14.88333330	     -0.55393819	     -2.23264396	   -181.31674689	      0.16968408	      0.98255748	      0.13441554	     23.49524198	      5.00477711	      1.92113216	     46.14708307	     11.12853588	    -15.64210874	      0.00000000	     25.70665198	     -1.68625072	      1.66622645	    119.95193442	     -7.21077341	    -15.18409634	      0.00000000	    -19.19346174	      0.39312777	     -1.15158446	     -4.25049586	    -20.74819504	      3.64241123	     98.10336914	    103.03191776	    -12.48508970	    -28.99384984	     15.03034178	     79.52908775	     94.58757216
     14.89166670	     -0.51321531	     -1.91508915	   -181.69814750	      0.17263661	      0.98152528	      0.13432312	     22.19257209	      5.48770118	      2.42268404	     47.18860755	     12.11609485	    -16.33845294	      0.00000000	     28.80886704	     -1.99674084	      1.74677240	    120.26119421	     -5.31010651	    -13.92876483	      0.00000000	    -19.61169007	      0.83849039	      0.98296105	     -2.44512809	    -21.44083836	      3.88164655	     98.00860715	    102.95101241	    -13.47367765	    -29.39166458	     14.38009926	     78.23873671	     94.74194593
     14.90000000	     -0.41094649	     -1.62147984	   -181.87139667	      0.17556661	      0.98222190	      0.13447301	     20.63343931	      5.76602562	      2.59374198	     47.55555513	     12.59360854	    -17.27171813	      0.00000000	     32.00768191	     -2.18778421	      1.90435295	    119.78478008	     -3.63098133	    -13.00994416	      0.00000000	    -19.93201390	      1.20991872	      1.52650086	      0.69305135	    -22.08428145	      5.72918107	     97.38739120	    102.04159829	    -16.37615837	    -29.17045210	     11.18745201	     78.30343251	     95.08499778
     14.90833330	     -0.36665039	     -1.56608827	   -182.17400306	      0.17839065	      0.98495724	      0.13437066	     18.75136660	      5.72712691	      2.79810313	     47.42715310	     13.33507629	    -17.37662703	      0.00000000	     34.88537499	     -2.21263599	      1.67368263	    118.54943250	     -2.65872713	    -12.73137567	      0.00000000	    -20.29492177	      1.30376094	      3.41559173	      1.95510381	    -22.81189745	      5.99295895	     98.39373344	    101.83084305	    -17.47352588	    -29.62795896	     10.16710708	     78.47350732	     95.00284738
     14.91666670	     -0.34893592	     -1.53456871	   -182.25525268	      0.18113327	      0.98888935	      0.13442339	     16.56772610	      5.50966094	      2.71251725	     46.72687434	     13.70283664	    -17.31571139	      0.00000000	     37.46186878	     -2.14286564	      1.44937440	    116.67963473	     -2.67034939	    -12.98498173	      0.00000000	    -20.75796081	      1.31349559	      4.09224360	      3.91883661	    -22.88582104	      6.57028110	     99.30023075	    100.94944420	    -20.15678491	    -29.46893186	      6.94384856	     80.01436707	     94.42150850
     14.92500000	      0.14315610	     -1.59704977	   -182.24989737	      0.18328354	      0.99341975	      0.13485455	     14.62695038	      5.09410300	      2.51374846	     45.49709519	     13.61933559	    -16.93621009	      0.00000000	     40.22508123	     -2.07342526	      0.97217008	    114.04115485	     -3.45460734	    -14.09379360	      0.00000000	    -20.41331565	      1.40720177	      5.40172236	      4.93545074	    -23.48720153	      6.94265840	    100.83065916	    100.79521087	    -21.39730685	    -29.82339969	      6.14219848	     80.81371081	     94.26026637
     14.93333330	      0.52456581	     -1.85226113	   -181.99256563	      0.18497203	      0.99937774	      0.13546559	     12.37017601	      4.36676645	      2.01464679	     43.79424183	     13.75470660	    -15.61161931	      0.00000000	     42.41704648	     -1.81661082	      0.30165745	    110.65511659	     -4.54489456	    -15.70975126	      0.00000000	    -20.30230616	      1.09638960	      5.93781271	      5.93897745	    -23.40897809	      6.77607847	    102.31929345	    100.23786420	    -23.65546556	    -29.52890512	      3.17312757	     82.76721222	     93.59737826
     14.94166670	      1.36873958	     -2.06911878	   -181.26044698	      0.18568422	      1.00515760	      0.13673111	     10.41306006	      3.62879561	      1.07875348	     41.72535947	     13.12746143	    -14.43612919	      0.00000000	     44.72717826	     -1.40807579	     -0.21505120	    106.71449836	     -5.66851142	    -17.58961169	      0.00000000	    -19.31557591	      1.17040529	      6.36731111	      6.43759334	    -23.56525101	      6.83777952	    104.18331751	    100.09055917	    -25.08264733	    -29.83124809	      2.19866207	     83.79537113	     93.37508302
     14.95000000	      2.13742192	     -2.38683400	   -180.68489865	      0.18570765	      1.01270135	      0.13812811	      8.23636879	      2.79594344	      0.19860515	     39.26335280	     12.41185147	    -12.29708592	      0.00000000	     46.35279240	     -1.10029822	     -1.16696191	    102.02335089	     -6.78017010	    -19.65087282	      0.00000000	    -18.42260599	      0.94231105	      6.80536648	      6.61487616	    -23.39009960	      6.22767679	    105.94282287	     99.87517405	    -26.80961358	    -29.55636198	      0.25632642	     85.26556912	     92.94857585
     14.95833330	      2.85767992	     -2.69903064	   -179.89595106	      0.18482432	      1.02122481	      0.13992108	      5.81498502	      1.94547569	     -0.97226004	     36.41349796	     10.87389559	    -10.22365925	      0.00000000	     47.40039027	     -0.56986224	     -2.02436469	     96.83022115	     -7.85233571	    -20.98971726	      0.00000000	    -17.33017777	      0.82704086	      7.05983036	      6.64573555	    -23.13381172	      5.82582165	    107.43071965	     99.75336698	    -28.39036474	    -29.23200796	     -1.31942004	     86.39300326	     92.55319599
     14.96666670	      3.47699746	     -2.89820651	   -179.23333198	      0.18299811	      1.02997344	      0.14174010	      3.13415160	      1.29197993	     -2.01733438	     33.22624168	      8.66254833	     -8.11844625	      0.00000000	     47.98832967	     -0.08270744	     -2.85015692	     91.37143546	     -9.03520084	    -22.20630833	      0.00000000	    -16.19850179	      0.79450244	      7.45393458	      6.46982902	    -22.94924633	      5.47645755	    108.69440534	     99.71839666	    -29.86530167	    -28.74743731	     -2.69223816	     87.26728365	     92.19158339
     14.97500000	      3.89175177	     -2.91340548	   -178.90486540	      0.18018594	      1.03800695	      0.14331716	      0.13780139	      0.90053229	     -2.77797616	     29.80940141	      6.17118316	     -5.61429100	      0.00000000	     48.39329271	      0.34596260	     -3.56958500	     85.80147389	     -9.02119377	    -22.50608869	      0.00000000	    -15.21537603	      0.89519342	      8.10772990	      6.14442024	    -22.83907720	      5.28557269	    109.96386286	     99.76817629	    -31.47186775	    -28.07131158	     -4.11517646	     88.18843618	     91.81591912
     14.98333330	      4.06827526	     -2.71641769	   -178.92512202	      0.17601564	      1.04598687	      0.14426069	     -3.13690213	      0.79803776	     -3.18241989	     26.26755072	      2.76021118	     -3.74726919	      0.00000000	     48.23308320	      0.47084237	     -4.24236203	     80.19785195	    -10.65041042	    -23.74135765	      0.00000000	    -14.26466003	      1.19101637	      9.03578146	      5.83149443	    -22.78823834	      5.47581438	    111.06446774	     99.89621157	    -33.15757214	    -27.38080702	     -5.36532735	     89.01109174	     91.47981714
     14.99166670	      4.22101031	     -2.39055028	   -179.09347215	      0.17163179	      1.05285423	      0.14494605	     -6.40816675	      0.82299689	     -3.49403973	     22.73583493	     -1.10658027	     -1.78567379	      0.00000000	     47.85855283	      0.57829236	     -4.68313413	     74.17992260	    -11.44043316	    -23.72765893	      0.00000000	    -13.27133748	      1.55155184	     10.02157973	      5.30172914	    -22.80926290	      5.87259725	    112.13539986	    100.06314551	    -34.93934287	    -26.61329584	     -6.63022225	     89.88064877	     91.17409336
